<svg width="27" height="36" viewBox="0 0 27 36" fill="none" xmlns="http://www.w3.org/2000/svg">
<path opacity="0.87" d="M0 36V3.375C0 2.5213 0.316957 1.74163 1.05668 0.922214C1.45813 0.443882 2.36472 0 3.375 0H23.625C25.489 0 27 1.51102 27 3.375V36L13.5 28.125L0 36Z" fill="#F7B539"/>
<path d="M11.7497 18.2038L8.16167 14.6158C7.94611 14.4002 7.94611 14.0507 8.16167 13.8351L8.9423 13.0545C9.15786 12.8389 9.50739 12.8389 9.72295 13.0545L12.14 15.4715L17.3171 10.2945C17.5326 10.0789 17.8821 10.0789 18.0977 10.2945L18.8783 11.0751C19.0939 11.2907 19.0939 11.6402 18.8783 11.8558L12.5303 18.2038C12.3147 18.4194 11.9652 18.4194 11.7497 18.2038Z" fill="white"/>
</svg>
