<svg width="27" height="36" viewBox="0 0 27 36" fill="none" xmlns="http://www.w3.org/2000/svg">
<path opacity="0.87" d="M0 36V3.375C0 2.5213 0.316957 1.74163 1.05668 0.922214C1.45813 0.443882 2.36472 0 3.375 0H23.625C25.489 0 27 1.51102 27 3.375V36L13.5 28.125L0 36Z" fill="#514F4F"/>
<path d="M18.3317 13.863H14.1871V9.71843C14.1871 9.34048 13.8779 9.03125 13.4999 9.03125C13.122 9.03125 12.8127 9.34048 12.8127 9.71843V13.863H8.66814C8.29019 13.863 7.98096 14.1722 7.98096 14.5502C7.98096 14.7392 8.05827 14.911 8.18282 15.0355C8.30737 15.1601 8.47917 15.2374 8.66814 15.2374H12.8127V19.382C12.8127 19.5709 12.89 19.7427 13.0146 19.8673C13.1391 19.9918 13.3109 20.0691 13.4999 20.0691C13.8779 20.0691 14.1871 19.7599 14.1871 19.382V15.2374H18.3317C18.7096 15.2374 19.0188 14.9281 19.0188 14.5502C19.0188 14.1722 18.7096 13.863 18.3317 13.863Z" fill="white"/>
</svg>
