<svg width="26" height="21" viewBox="0 0 26 21" fill="none" xmlns="http://www.w3.org/2000/svg">
<path d="M13.0231 4.26172L3.9461 11.7448C3.9461 11.7554 3.94344 11.7709 3.93813 11.7921C3.93294 11.8131 3.93018 11.8283 3.93018 11.8392V19.4166C3.93018 19.6901 4.0302 19.9273 4.23019 20.1269C4.43013 20.3267 4.6669 20.4272 4.94054 20.4272H11.0023V14.3651H15.0441V20.4274H21.1058C21.3794 20.4274 21.6165 20.3271 21.8161 20.1269C22.0161 19.9275 22.1165 19.6902 22.1165 19.4166V11.8392C22.1165 11.7971 22.1107 11.7654 22.1005 11.7448L13.0231 4.26172Z" fill="#B5B4B4"/>
<path d="M25.573 10.0386L22.116 7.16544V0.724533C22.116 0.577282 22.0687 0.456196 21.9737 0.361423C21.8794 0.266758 21.7584 0.219429 21.6108 0.219429H18.5798C18.4324 0.219429 18.3114 0.266758 18.2166 0.361423C18.122 0.456196 18.0747 0.577343 18.0747 0.724533V3.80285L14.2229 0.582317C13.8865 0.30867 13.4865 0.171875 13.0233 0.171875C12.5603 0.171875 12.1603 0.30867 11.8236 0.582317L0.472783 10.0386C0.367561 10.1226 0.30989 10.2357 0.299163 10.3778C0.288492 10.5198 0.325262 10.6439 0.409583 10.749L1.38832 11.9173C1.47265 12.0119 1.58301 12.0698 1.71986 12.091C1.8462 12.1016 1.97255 12.0647 2.09889 11.9805L13.023 2.87144L23.9472 11.9805C24.0316 12.0539 24.1419 12.0905 24.2788 12.0905H24.3262C24.4628 12.0698 24.573 12.0115 24.6577 11.917L25.6366 10.749C25.7208 10.6436 25.7576 10.5198 25.7467 10.3776C25.7359 10.2359 25.678 10.1228 25.573 10.0386Z" fill="#B5B4B4"/>
</svg>
