<svg width="79" height="89" viewBox="0 0 79 89" fill="none" xmlns="http://www.w3.org/2000/svg">
<path d="M68.833 0.5V10.2619H59.0712V0.5H20.0237V10.2619H10.2619V0.5H0.5V88.3568H10.2619V78.5949H20.0237V88.3568H59.0712V78.5949H68.833V88.3568H78.5949V0.5H68.833ZM20.0237 68.833H10.2619V59.0712H20.0237V68.833ZM20.0237 49.3093H10.2619V39.5474H20.0237V49.3093ZM20.0237 29.7856H10.2619V20.0237H20.0237V29.7856ZM68.833 68.833H59.0712V59.0712H68.833V68.833ZM68.833 49.3093H59.0712V39.5474H68.833V49.3093ZM68.833 29.7856H59.0712V20.0237H68.833V29.7856Z" fill="#B5B4B4"/>
</svg>
