<svg width="23" height="23" viewBox="0 0 23 23" fill="none" xmlns="http://www.w3.org/2000/svg">
<path d="M19.5723 0.839844H18.0957C19.1504 1.16876 19.6988 2.02857 19.6988 3.30386V20.5404C19.6988 21.8157 19.2066 22.6929 18.0957 23.0045H19.5723C21.2387 23.0045 22.5816 21.8965 22.5816 20.5404V3.30386C22.5816 1.94779 21.2387 0.839844 19.5723 0.839844Z" fill="#C6C6C6"/>
<path d="M15.9585 0.851385C15.8812 0.845614 15.8039 0.839844 15.7267 0.839844H2.77941C1.48247 0.839844 0.422852 1.94779 0.422852 3.30386V20.5404C0.422852 21.8965 1.48247 23.0045 2.77941 23.0045H15.7322C15.8094 23.0045 15.8867 22.9987 15.964 22.9929C17.1505 22.8717 18.0887 21.8157 18.0887 20.5404V3.30386C18.0832 2.02857 17.145 0.972566 15.9585 0.851385ZM8.37002 11.9193L5.27945 10.0727L2.18889 11.9193V2.68641H8.37002V11.9193Z" fill="#C6C6C6"/>
</svg>
