<svg width="60" height="60" viewBox="0 0 60 60" fill="none" xmlns="http://www.w3.org/2000/svg">
<path d="M30 0C13.458 0 0 13.458 0 30C0 46.542 13.458 60 30 60C46.542 60 60 46.542 60 30C60 13.458 46.542 0 30 0ZM45.563 30.826L23.563 45.826C23.394 45.941 23.197 46 23 46C22.84 46 22.679 45.962 22.533 45.884C22.205 45.711 22 45.371 22 45V15C22 14.629 22.205 14.289 22.533 14.116C22.861 13.942 23.257 13.966 23.564 14.174L45.564 29.174C45.836 29.36 46 29.669 46 30C46 30.331 45.836 30.64 45.563 30.826Z" fill="white"/>
</svg>
