<svg width="20" height="21" viewBox="0 0 20 21" fill="none" xmlns="http://www.w3.org/2000/svg">
<path d="M19.2808 18.6204L14.4602 13.6067C15.6997 12.1333 16.3788 10.2795 16.3788 8.34955C16.3788 3.84045 12.7102 0.171875 8.20112 0.171875C3.69202 0.171875 0.0234375 3.84045 0.0234375 8.34955C0.0234375 12.8587 3.69202 16.5272 8.20112 16.5272C9.8939 16.5272 11.507 16.0167 12.8862 15.0474L17.7434 20.0991C17.9464 20.3099 18.2195 20.4262 18.5121 20.4262C18.7891 20.4262 19.0518 20.3206 19.2513 20.1286C19.6751 19.7208 19.6886 19.0445 19.2808 18.6204ZM8.20112 2.30518C11.5341 2.30518 14.2455 5.01662 14.2455 8.34955C14.2455 11.6825 11.5341 14.3939 8.20112 14.3939C4.86818 14.3939 2.15674 11.6825 2.15674 8.34955C2.15674 5.01662 4.86818 2.30518 8.20112 2.30518Z" fill="white" fill-opacity="0.74902"/>
</svg>
