<svg width="11" height="11" viewBox="0 0 11 11" fill="none" xmlns="http://www.w3.org/2000/svg">
<path d="M5.5038 1.00059L6.63599 3.29471C6.71473 3.45427 6.86695 3.56483 7.04305 3.59038L9.57484 3.95828C10.0183 4.02278 10.1953 4.56762 9.87448 4.88024L8.04249 6.66596C7.91518 6.79013 7.85697 6.96916 7.88712 7.14442L8.31952 9.66595C8.39532 10.1076 7.93172 10.4443 7.53513 10.2359L5.27074 9.04551C5.11328 8.9628 4.92503 8.9628 4.76757 9.04551L2.50318 10.2359C2.10659 10.4445 1.64299 10.1076 1.71879 9.66595L2.15119 7.14442C2.18134 6.96916 2.12313 6.79013 1.99582 6.66596L0.163828 4.88024C-0.156964 4.56741 0.0199743 4.02257 0.463471 3.95828L2.99526 3.59038C3.17136 3.56483 3.32359 3.45427 3.40232 3.29471L4.53451 1.00059C4.7326 0.598762 5.3055 0.598762 5.5038 1.00059Z" fill="url(#paint0_linear_72_5110)"/>
<defs>
<linearGradient id="paint0_linear_72_5110" x1="2.50958" y1="3.09922" x2="2.50958" y2="3.09922" gradientUnits="userSpaceOnUse">
<stop stop-color="#FFBB3B"/>
<stop offset="1" stop-color="#FFA90A"/>
</linearGradient>
</defs>
</svg>
